{
  "accessors": [
    {
      "bufferView": 2,
      "componentType": 5126,
      "count": 1150,
      "max": [
        348.5509948730469,
        0.0,
        57.07059860229492
      ],
      "min": [
        -8.459899955863461e-15,
        -219.39300537109375,
        -1.6616099636620682e-14
      ],
      "type": "VEC3"
    },
    {
      "bufferView": 2,
      "byteOffset": 13800,
      "componentType": 5126,
      "count": 1150,
      "max": [
        1.0,
        0.980251669883728,
        0.965219259262085
      ],
      "min": [
        -1.0,
        -0.9980329871177673,
        -0.1977539211511612
      ],
      "type": "VEC3"
    },
    {
      "bufferView": 1,
      "componentType": 5126,
      "count": 1150,
      "max": [
        13.72249984741211,
        2.4816501140594482
      ],
      "min": [
        -13.799799919128418,
        -0.18802200257778168
      ],
      "type": "VEC2"
    },
    {
      "bufferView": 0,
      "componentType": 5125,
      "count": 1800,
      "type": "SCALAR"
    },
    {
      "bufferView": 2,
      "byteOffset": 27600,
      "componentType": 5126,
      "count": 795,
      "max": [
        193.64199829101563,
        -26.162799835205078,
        66.14920043945313
      ],
      "min": [
        77.80249786376953,
        -95.58000183105469,
        38.15060043334961
      ],
      "type": "VEC3"
    },
    {
      "bufferView": 0,
      "byteOffset": 7200,
      "componentType": 5125,
      "count": 1810,
      "type": "SCALAR"
    },
    {
      "bufferView": 2,
      "byteOffset": 37140,
      "componentType": 5126,
      "count": 1969,
      "max": [
        348.5509948730469,
        1.2581900358200073,
        65.67389678955078
      ],
      "min": [
        -8.459899955863461e-15,
        -217.6580047607422,
        -1.6616099636620682e-14
      ],
      "type": "VEC3"
    },
    {
      "bufferView": 2,
      "byteOffset": 60768,
      "componentType": 5126,
      "count": 1969,
      "max": [
        1.0,
        1.0,
        0.9975864887237549
      ],
      "min": [
        -1.0,
        -1.0,
        -1.0
      ],
      "type": "VEC3"
    },
    {
      "bufferView": 1,
      "byteOffset": 9200,
      "componentType": 5126,
      "count": 1969,
      "max": [
        13.72249984741211,
        13.837400436401367
      ],
      "min": [
        -13.72249984741211,
        -6.619679927825928
      ],
      "type": "VEC2"
    },
    {
      "bufferView": 0,
      "byteOffset": 14440,
      "componentType": 5125,
      "count": 3198,
      "type": "SCALAR"
    },
    {
      "bufferView": 2,
      "byteOffset": 84396,
      "componentType": 5126,
      "count": 140,
      "max": [
        193.64199829101563,
        -72.71430206298828,
        48.61320114135742
      ],
      "min": [
        77.80249786376953,
        -95.18450164794922,
        38.15060043334961
      ],
      "type": "VEC3"
    },
    {
      "bufferView": 2,
      "byteOffset": 86076,
      "componentType": 5126,
      "count": 140,
      "max": [
        1.0,
        0.980251669883728,
        0.980251669883728
      ],
      "min": [
        -1.0,
        -0.980251669883728,
        -0.980251669883728
      ],
      "type": "VEC3"
    },
    {
      "bufferView": 1,
      "byteOffset": 24952,
      "componentType": 5126,
      "count": 140,
      "max": [
        0.7594990134239197,
        0.2726669907569885
      ],
      "min": [
        -0.7594990134239197,
        0.015263699926435947
      ],
      "type": "VEC2"
    },
    {
      "bufferView": 0,
      "byteOffset": 27232,
      "componentType": 5125,
      "count": 240,
      "type": "SCALAR"
    },
    {
      "bufferView": 2,
      "byteOffset": 87756,
      "componentType": 5126,
      "count": 4842,
      "max": [
        348.5509948730469,
        2.354520082473755,
        57.07059860229492
      ],
      "min": [
        -8.459899955863461e-15,
        -219.39300537109375,
        -1.6616099636620682e-14
      ],
      "type": "VEC3"
    },
    {
      "bufferView": 0,
      "byteOffset": 28192,
      "componentType": 5125,
      "count": 11160,
      "type": "SCALAR"
    },
    {
      "bufferView": 2,
      "byteOffset": 145860,
      "componentType": 5126,
      "count": 9840,
      "max": [
        348.5509948730469,
        2.354520082473755,
        57.07059860229492
      ],
      "min": [
        0.0,
        -213.76400756835938,
        0.0
      ],
      "type": "VEC3"
    },
    {
      "bufferView": 2,
      "byteOffset": 263940,
      "componentType": 5126,
      "count": 9840,
      "max": [
        1.0,
        0.980251669883728,
        0.980251669883728
      ],
      "min": [
        -1.0,
        -0.980251669883728,
        -0.980251669883728
      ],
      "type": "VEC3"
    },
    {
      "bufferView": 1,
      "byteOffset": 26072,
      "componentType": 5126,
      "count": 9840,
      "max": [
        0.9052799940109253,
        1.0
      ],
      "min": [
        0.0,
        0.02590000070631504
      ],
      "type": "VEC2"
    },
    {
      "bufferView": 0,
      "byteOffset": 72832,
      "componentType": 5125,
      "count": 25956,
      "type": "SCALAR"
    },
    {
      "bufferView": 2,
      "byteOffset": 382020,
      "componentType": 5126,
      "count": 830,
      "max": [
        189.38900756835938,
        -32.436100006103516,
        66.14920043945313
      ],
      "min": [
        82.3406982421875,
        -42.66109848022461,
        63.35459899902344
      ],
      "type": "VEC3"
    },
    {
      "bufferView": 2,
      "byteOffset": 391980,
      "componentType": 5126,
      "count": 830,
      "max": [
        1.0,
        0.980251669883728,
        0.980251669883728
      ],
      "min": [
        -1.0,
        -0.9718655943870544,
        -0.1960621178150177
      ],
      "type": "VEC3"
    },
    {
      "bufferView": 1,
      "byteOffset": 104792,
      "componentType": 5126,
      "count": 830,
      "max": [
        -0.023134799674153328,
        0.956745982170105
      ],
      "min": [
        -0.0649908035993576,
        0.8974069952964783
      ],
      "type": "VEC2"
    },
    {
      "bufferView": 0,
      "byteOffset": 176656,
      "componentType": 5125,
      "count": 2160,
      "type": "SCALAR"
    }
  ],
  "asset": {
    "extras": {
      "author": "James.Hasegawa (https://sketchfab.com/James.Hasegawa)",
      "license": "CC-BY-4.0 (http://creativecommons.org/licenses/by/4.0/)",
      "source": "https://sketchfab.com/3d-models/drum-machine-synthesizer-9b758d67d18f4fb293990b78aded4ab2",
      "title": "Drum Machine / Synthesizer"
    },
    "generator": "Sketchfab-16.16.0",
    "version": "2.0"
  },
  "bufferViews": [
    {
      "buffer": 0,
      "byteLength": 185296,
      "name": "floatBufferViews",
      "target": 34963
    },
    {
      "buffer": 0,
      "byteLength": 111432,
      "byteOffset": 185296,
      "byteStride": 8,
      "name": "floatBufferViews",
      "target": 34962
    },
    {
      "buffer": 0,
      "byteLength": 401940,
      "byteOffset": 296728,
      "byteStride": 12,
      "name": "floatBufferViews",
      "target": 34962
    }
  ],
  "buffers": [
    {
      "byteLength": 698668,
      "uri": "scene.bin"
    }
  ],
  "extensionsUsed": [
    "KHR_materials_specular"
  ],
  "images": [
    {
      "uri": "textures/ROMpler_tex_baseColor.jpeg"
    }
  ],
  "materials": [
    {
      "doubleSided": true,
      "name": "DarkPlastic_mat",
      "pbrMetallicRoughness": {
        "baseColorFactor": [
          0.003817572869280599,
          0.003817572869280599,
          0.003817572869280599,
          1.0
        ],
        "metallicFactor": 0.0,
        "roughnessFactor": 0.6
      }
    },
    {
      "doubleSided": true,
      "name": "FrontColor",
      "pbrMetallicRoughness": {
        "metallicFactor": 0.0,
        "roughnessFactor": 0.6
      }
    },
    {
      "doubleSided": true,
      "name": "ROMplerInnerColor_mat",
      "pbrMetallicRoughness": {
        "baseColorFactor": [
          0.009432933709822922,
          0.01101123050028984,
          0.007920686071042014,
          1.0
        ],
        "metallicFactor": 0.0,
        "roughnessFactor": 0.6
      }
    },
    {
      "doubleSided": true,
      "extensions": {
        "KHR_materials_specular": {
          "specularColorFactor": [
            1.0,
            1.0,
            1.0
          ],
          "specularFactor": 0.059428752544769654
        }
      },
      "name": "ROMpler_tex",
      "pbrMetallicRoughness": {
        "baseColorTexture": {
          "index": 0
        },
        "metallicFactor": 0.0,
        "roughnessFactor": 0.33981055942265725
      }
    }
  ],
  "meshes": [
    {
      "name": "Object_0",
      "primitives": [
        {
          "attributes": {
            "NORMAL": 1,
            "POSITION": 0,
            "TEXCOORD_0": 2
          },
          "indices": 3,
          "material": 2,
          "mode": 4
        }
      ]
    },
    {
      "name": "Object_1",
      "primitives": [
        {
          "attributes": {
            "POSITION": 4
          },
          "indices": 5,
          "material": 0,
          "mode": 1
        }
      ]
    },
    {
      "name": "Object_2",
      "primitives": [
        {
          "attributes": {
            "NORMAL": 7,
            "POSITION": 6,
            "TEXCOORD_0": 8
          },
          "indices": 9,
          "material": 0,
          "mode": 4
        }
      ]
    },
    {
      "name": "Object_3",
      "primitives": [
        {
          "attributes": {
            "NORMAL": 11,
            "POSITION": 10,
            "TEXCOORD_0": 12
          },
          "indices": 13,
          "material": 1,
          "mode": 4
        }
      ]
    },
    {
      "name": "Object_4",
      "primitives": [
        {
          "attributes": {
            "POSITION": 14
          },
          "indices": 15,
          "material": 2,
          "mode": 1
        }
      ]
    },
    {
      "name": "Object_5",
      "primitives": [
        {
          "attributes": {
            "NORMAL": 17,
            "POSITION": 16,
            "TEXCOORD_0": 18
          },
          "indices": 19,
          "material": 3,
          "mode": 4
        }
      ]
    },
    {
      "name": "Object_6",
      "primitives": [
        {
          "attributes": {
            "NORMAL": 21,
            "POSITION": 20,
            "TEXCOORD_0": 22
          },
          "indices": 23,
          "material": 3,
          "mode": 4
        }
      ]
    }
  ],
  "nodes": [
    {
      "children": [
        1
      ],
      "matrix": [
        1.0,
        0.0,
        0.0,
        0.0,
        0.0,
        2.220446049250313e-16,
        -1.0,
        0.0,
        0.0,
        1.0,
        2.220446049250313e-16,
        0.0,
        0.0,
        0.0,
        0.0,
        1.0
      ],
      "name": "Sketchfab_model"
    },
    {
      "children": [
        2,
        3,
        4,
        5,
        6,
        7,
        8
      ],
      "name": "ROMpler.obj.cleaner.materialmerger.gles"
    },
    {
      "mesh": 0,
      "name": "Object_2"
    },
    {
      "mesh": 1,
      "name": "Object_3"
    },
    {
      "mesh": 2,
      "name": "Object_4"
    },
    {
      "mesh": 3,
      "name": "Object_5"
    },
    {
      "mesh": 4,
      "name": "Object_6"
    },
    {
      "mesh": 5,
      "name": "Object_7"
    },
    {
      "mesh": 6,
      "name": "Object_8"
    }
  ],
  "samplers": [
    {
      "magFilter": 9729,
      "minFilter": 9987,
      "wrapS": 10497,
      "wrapT": 10497
    }
  ],
  "scene": 0,
  "scenes": [
    {
      "name": "Sketchfab_Scene",
      "nodes": [
        0
      ]
    }
  ],
  "textures": [
    {
      "sampler": 0,
      "source": 0
    }
  ]
}
