{
  "accessors": [
    {
      "bufferView": 2,
      "componentType": 5126,
      "count": 84,
      "max": [
        0.30480000376701355,
        0.30480000376701355,
        0.6095999479293823
      ],
      "min": [
        -0.30480000376701355,
        -0.30480000376701355,
        0.0
      ],
      "type": "VEC3"
    },
    {
      "bufferView": 2,
      "byteOffset": 1008,
      "componentType": 5126,
      "count": 84,
      "max": [
        1.0,
        1.0,
        0.9220912456512451
      ],
      "min": [
        -1.0,
        -1.0,
        -1.0
      ],
      "type": "VEC3"
    },
    {
      "bufferView": 1,
      "componentType": 5126,
      "count": 84,
      "max": [
        1.0,
        0.9427754878997803
      ],
      "min": [
        3.9584552302684983e-10,
        0.022967517375946045
      ],
      "type": "VEC2"
    },
    {
      "bufferView": 1,
      "byteOffset": 672,
      "componentType": 5126,
      "count": 84,
      "max": [
        1.0,
        0.9427754878997803
      ],
      "min": [
        3.9584552302684983e-10,
        0.022967517375946045
      ],
      "type": "VEC2"
    },
    {
      "bufferView": 1,
      "byteOffset": 1344,
      "componentType": 5126,
      "count": 84,
      "max": [
        1.0,
        0.9427754878997803
      ],
      "min": [
        3.9584552302684983e-10,
        0.022967517375946045
      ],
      "type": "VEC2"
    },
    {
      "bufferView": 0,
      "componentType": 5125,
      "count": 144,
      "type": "SCALAR"
    },
    {
      "bufferView": 2,
      "byteOffset": 2016,
      "componentType": 5126,
      "count": 264,
      "max": [
        10.28267765045166,
        0.41565069556236267,
        0.6096000075340271
      ],
      "min": [
        -0.35094472765922546,
        -0.4156506657600403,
        -4.395877795104752e-08
      ],
      "type": "VEC3"
    },
    {
      "bufferView": 2,
      "byteOffset": 5184,
      "componentType": 5126,
      "count": 264,
      "max": [
        0.997147262096405,
        0.9838659167289734,
        1.0
      ],
      "min": [
        -0.9971473217010498,
        -0.9838659167289734,
        -1.0
      ],
      "type": "VEC3"
    },
    {
      "bufferView": 1,
      "byteOffset": 2016,
      "componentType": 5126,
      "count": 264,
      "max": [
        0.9769617319107056,
        0.09784367680549622
      ],
      "min": [
        0.8295631408691406,
        0.015500256791710854
      ],
      "type": "VEC2"
    },
    {
      "bufferView": 1,
      "byteOffset": 4128,
      "componentType": 5126,
      "count": 264,
      "max": [
        0.9769617319107056,
        0.09784367680549622
      ],
      "min": [
        0.8295631408691406,
        0.015500256791710854
      ],
      "type": "VEC2"
    },
    {
      "bufferView": 1,
      "byteOffset": 6240,
      "componentType": 5126,
      "count": 264,
      "max": [
        0.9769617319107056,
        0.09784367680549622
      ],
      "min": [
        0.8295631408691406,
        0.015500256791710854
      ],
      "type": "VEC2"
    },
    {
      "bufferView": 0,
      "byteOffset": 576,
      "componentType": 5125,
      "count": 396,
      "type": "SCALAR"
    },
    {
      "bufferView": 2,
      "byteOffset": 8352,
      "componentType": 5126,
      "count": 1620,
      "max": [
        0.9359768629074097,
        2.9545183181762695,
        0.6096000075340271
      ],
      "min": [
        -7.133773326873779,
        -0.30480000376701355,
        0.0
      ],
      "type": "VEC3"
    },
    {
      "bufferView": 2,
      "byteOffset": 27792,
      "componentType": 5126,
      "count": 1620,
      "max": [
        1.0,
        1.0,
        1.0
      ],
      "min": [
        -1.0,
        -1.0,
        -1.0
      ],
      "type": "VEC3"
    },
    {
      "bufferView": 1,
      "byteOffset": 8352,
      "componentType": 5126,
      "count": 1620,
      "max": [
        0.9497650265693665,
        0.14965730905532837
      ],
      "min": [
        0.7800302505493164,
        0.011687370017170906
      ],
      "type": "VEC2"
    },
    {
      "bufferView": 1,
      "byteOffset": 21312,
      "componentType": 5126,
      "count": 1620,
      "max": [
        0.9497650265693665,
        0.14965730905532837
      ],
      "min": [
        0.7800302505493164,
        0.011687370017170906
      ],
      "type": "VEC2"
    },
    {
      "bufferView": 1,
      "byteOffset": 34272,
      "componentType": 5126,
      "count": 1620,
      "max": [
        0.9497650265693665,
        0.14965730905532837
      ],
      "min": [
        0.7800302505493164,
        0.011687370017170906
      ],
      "type": "VEC2"
    },
    {
      "bufferView": 0,
      "byteOffset": 2160,
      "componentType": 5125,
      "count": 3780,
      "type": "SCALAR"
    }
  ],
  "asset": {
    "extras": {
      "author": "seiborg (https://sketchfab.com/seiborg)",
      "license": "CC-BY-4.0 (http://creativecommons.org/licenses/by/4.0/)",
      "source": "https://sketchfab.com/3d-models/roloand-tr8s-9a3d0260141e4c5f86b16de0ce09d9ad",
      "title": "Roloand TR8S"
    },
    "generator": "Sketchfab-15.16.0",
    "version": "2.0"
  },
  "bufferViews": [
    {
      "buffer": 0,
      "byteLength": 17280,
      "name": "floatBufferViews",
      "target": 34963
    },
    {
      "buffer": 0,
      "byteLength": 47232,
      "byteOffset": 17280,
      "byteStride": 8,
      "name": "floatBufferViews",
      "target": 34962
    },
    {
      "buffer": 0,
      "byteLength": 47232,
      "byteOffset": 64512,
      "byteStride": 12,
      "name": "floatBufferViews",
      "target": 34962
    }
  ],
  "buffers": [
    {
      "byteLength": 111744,
      "uri": "scene.bin"
    }
  ],
  "extensionsUsed": [
    "KHR_materials_emissive_strength",
    "KHR_materials_specular"
  ],
  "images": [
    {
      "uri": "textures/TR8S_A_baseColor.png"
    },
    {
      "uri": "textures/TR8S_A_metallicRoughness.png"
    },
    {
      "uri": "textures/TR8S_A_emissive.png"
    }
  ],
  "materials": [
    {
      "doubleSided": true,
      "emissiveFactor": [
        1.0,
        1.0,
        1.0
      ],
      "emissiveTexture": {
        "index": 2,
        "texCoord": 1
      },
      "extensions": {
        "KHR_materials_emissive_strength": {
          "emissiveStrength": 3.0
        },
        "KHR_materials_specular": {
          "specularColorFactor": [
            1.0,
            1.0,
            1.0
          ],
          "specularFactor": 0.2
        }
      },
      "name": "TR8S_A",
      "occlusionTexture": {
        "index": 1
      },
      "pbrMetallicRoughness": {
        "baseColorTexture": {
          "index": 0
        },
        "metallicFactor": 0.0,
        "metallicRoughnessTexture": {
          "index": 1
        }
      }
    }
  ],
  "meshes": [
    {
      "name": "Body_TR8S_A_0",
      "primitives": [
        {
          "attributes": {
            "NORMAL": 1,
            "POSITION": 0,
            "TEXCOORD_0": 2,
            "TEXCOORD_1": 3,
            "TEXCOORD_2": 4
          },
          "indices": 5,
          "material": 0,
          "mode": 4
        }
      ]
    },
    {
      "name": "Faders_TR8S_A_0",
      "primitives": [
        {
          "attributes": {
            "NORMAL": 7,
            "POSITION": 6,
            "TEXCOORD_0": 8,
            "TEXCOORD_1": 9,
            "TEXCOORD_2": 10
          },
          "indices": 11,
          "material": 0,
          "mode": 4
        }
      ]
    },
    {
      "name": "Knobs_TR8S_A_0",
      "primitives": [
        {
          "attributes": {
            "NORMAL": 13,
            "POSITION": 12,
            "TEXCOORD_0": 14,
            "TEXCOORD_1": 15,
            "TEXCOORD_2": 16
          },
          "indices": 17,
          "material": 0,
          "mode": 4
        }
      ]
    }
  ],
  "nodes": [
    {
      "children": [
        1
      ],
      "matrix": [
        1.0,
        0.0,
        0.0,
        0.0,
        0.0,
        2.220446049250313e-16,
        -1.0,
        0.0,
        0.0,
        1.0,
        2.220446049250313e-16,
        0.0,
        0.0,
        0.0,
        0.0,
        1.0
      ],
      "name": "Sketchfab_model"
    },
    {
      "children": [
        2
      ],
      "matrix": [
        0.009999999776482582,
        0.0,
        0.0,
        0.0,
        0.0,
        0.0,
        0.009999999776482582,
        0.0,
        0.0,
        -0.009999999776482582,
        0.0,
        0.0,
        0.0,
        0.0,
        0.0,
        1.0
      ],
      "name": "64e31a6d4dd94a17a265c0699973933e.fbx"
    },
    {
      "children": [
        3
      ],
      "name": "RootNode"
    },
    {
      "children": [
        4,
        6,
        8
      ],
      "matrix": [
        100.0,
        0.0,
        0.0,
        0.0,
        0.0,
        -1.629206793918314e-05,
        -99.99999999999868,
        0.0,
        0.0,
        99.99999999999868,
        -1.629206793918314e-05,
        0.0,
        0.0,
        0.0,
        0.0,
        1.0
      ],
      "name": "TR8S"
    },
    {
      "children": [
        5
      ],
      "matrix": [
        0.6708332896232605,
        0.0,
        0.0,
        0.0,
        0.0,
        0.4333333373069763,
        0.0,
        0.0,
        0.0,
        0.0,
        0.09583333134651184,
        0.0,
        0.0,
        0.0,
        0.0,
        1.0
      ],
      "name": "Body"
    },
    {
      "mesh": 0,
      "name": "Body_TR8S_A_0"
    },
    {
      "children": [
        7
      ],
      "matrix": [
        0.02215326763689518,
        0.0,
        0.0,
        0.0,
        0.0,
        0.007410601247102022,
        2.0679515313825683e-25,
        0.0,
        0.0,
        -4.47945719023212e-25,
        0.01605234481394291,
        0.0,
        -0.12211212515830994,
        -0.002785674761980772,
        0.05841999873518944,
        1.0
      ],
      "name": "Faders"
    },
    {
      "mesh": 1,
      "name": "Faders_TR8S_A_0"
    },
    {
      "children": [
        9
      ],
      "matrix": [
        0.045119643211364746,
        0.0,
        0.0,
        0.0,
        0.0,
        0.045119643211364746,
        0.0,
        0.0,
        0.0,
        0.0,
        0.020226843655109406,
        0.0,
        0.14018210768699646,
        -0.026104159653186798,
        0.05841999873518944,
        1.0
      ],
      "name": "Knobs"
    },
    {
      "mesh": 2,
      "name": "Knobs_TR8S_A_0"
    }
  ],
  "samplers": [
    {
      "magFilter": 9729,
      "minFilter": 9987,
      "wrapS": 33071,
      "wrapT": 33071
    },
    {
      "magFilter": 9729,
      "minFilter": 9987,
      "wrapS": 10497,
      "wrapT": 10497
    }
  ],
  "scene": 0,
  "scenes": [
    {
      "name": "Sketchfab_Scene",
      "nodes": [
        0
      ]
    }
  ],
  "textures": [
    {
      "sampler": 0,
      "source": 0
    },
    {
      "sampler": 1,
      "source": 1
    },
    {
      "sampler": 0,
      "source": 2
    }
  ]
}
